<svg id="Layer_1" data-name="Layer 1" xmlns="http://www.w3.org/2000/svg" viewBox="0 0 688.26 688.26"><defs><style>.cls-1{fill:none;stroke:#E14346;stroke-linecap:round;stroke-miterlimit:10;stroke-width:62px;}.cls-2{fill:#E14346;}</style></defs><path class="cls-1" d="M1513.6,1336.92c-11.55,127.78-118.95,227.9-249.73,227.9a250.31,250.31,0,0,1-79.07-12.72" transform="translate(-930.14 -959.53)"/><path class="cls-1" d="M1025.82,1393.13a250.59,250.59,0,0,1-12.72-79.07c0-132.73,103.12-241.37,233.61-250.19" transform="translate(-930.14 -959.53)"/><path class="cls-2" d="M1312.24,1266.54A189.85,189.85,0,0,1,1353.16,1474a182.6,182.6,0,0,0,37.61-28.9c71.23-71.23,71.23-186.71,0-257.93s-186.7-71.23-257.93,0a182.18,182.18,0,0,0-29.8,39.22A189.85,189.85,0,0,1,1312.24,1266.54Z" transform="translate(-930.14 -959.53)"/><path class="cls-2" d="M1260.86,1319.11a145.28,145.28,0,0,0-27.63-21.5L943.1,1587.74c-15.41,15.4-17.35,38.43-4.35,51.43s36,11.06,51.43-4.34l290.61-290.6A145.13,145.13,0,0,0,1260.86,1319.11Z" transform="translate(-930.14 -959.53)"/><path class="cls-2" d="M1301.07,1388.75,1163.6,1526.21a33.3,33.3,0,1,0,47.09,47.09l94.24-94.24A171.07,171.07,0,0,0,1301.07,1388.75Z" transform="translate(-930.14 -959.53)"/><path class="cls-2" d="M1095.59,1276.27l-91.24,91.25a33.3,33.3,0,1,0,47.09,47.09L1188.08,1278A171.16,171.16,0,0,0,1095.59,1276.27Z" transform="translate(-930.14 -959.53)"/><path class="cls-2" d="M1594.76,983.17c-49.21-49.2-159.06-19.13-245.37,67.18s-116.38,196.16-67.18,245.36,159.06,19.13,245.37-67.17S1644,1032.38,1594.76,983.17Zm-199.41,199.41a61,61,0,1,1,86.27,0A61,61,0,0,1,1395.35,1182.58Z" transform="translate(-930.14 -959.53)"/></svg>
